<?xml version="1.0" encoding="utf-8"?>
<svg version="1.1" id="Layer_1" xmlns="http://www.w3.org/2000/svg" xmlns:xlink="http://www.w3.org/1999/xlink" x="0px" y="0px"
	 viewBox="0 0 110 100" style="enable-background:new 0 0 110 100;" width="110" height="100" xml:space="preserve">
<style type="text/css">
	.st0{fill:#AAB7BD;}
	.st1{fill:#FFD159;}
	.st2{fill:#F26E09;}
	.st3{fill:#D2D7D9;}
</style>
<path class="st0" d="M55.5,26.9c11.8,0,21.5,9.7,21.5,21.5c0,5.8-2.2,11.3-6.3,15.3c-4.7,4.7-7.5,10.7-7.8,17H48.3
	c-0.2-6.3-2.9-12.2-7.7-16.8c-4.4-4.3-6.8-10.4-6.4-16.7c0.6-11,9.7-19.9,20.6-20.2C55,26.9,55.2,26.9,55.5,26.9 M55.5,24.9
	c-0.3,0-0.5,0-0.8,0c-12,0.4-21.9,10.1-22.6,22.1c-0.4,7.1,2.3,13.7,7,18.2c4.4,4.3,7.1,10.1,7.1,16.2v1.2h18.5V82
	c0-6.4,2.7-12.3,7.2-16.8C76.4,60.9,79,55,79,48.5C79,35.5,68.5,24.9,55.5,24.9L55.5,24.9z"/>
<g>
	<rect x="86.7" y="47.7" class="st1" width="16.3" height="2"/>
	<rect x="8.1" y="47.7" class="st1" width="16.3" height="2"/>
	<rect x="54.6" y="1.4" class="st1" width="2" height="16.3"/>
	<rect x="81.3" y="28.1" transform="matrix(0.8661 -0.4999 0.4999 0.8661 -2.5777 48.6092)" class="st1" width="16.3" height="2"/>
	<rect x="34.9" y="6.5" transform="matrix(0.8662 -0.4997 0.4997 0.8662 -2.5188 19.9056)" class="st1" width="2" height="16.3"/>
	<rect x="13.5" y="67.2" transform="matrix(0.8663 -0.4996 0.4996 0.8663 -31.1919 19.9106)" class="st1" width="16.3" height="2"/>
	<rect x="20.6" y="21" transform="matrix(0.5 -0.866 0.866 0.5 -14.4032 33.2829)" class="st1" width="2" height="16.3"/>
	<rect x="67" y="13.7" transform="matrix(0.4996 -0.8663 0.8663 0.4996 24.911 72.4335)" class="st1" width="16.3" height="2"/>
	
		<rect x="88.4" y="60.2" transform="matrix(0.5006 -0.8657 0.8657 0.5006 -14.4837 111.5178)" class="st1" width="2" height="16.3"/>
</g>
<path class="st2" d="M64.2,48.5l-0.5,2.4c-2.3,0.7-5.2,1.1-8.2,1.1c-3,0-5.9-0.4-8.2-1.1l-0.5-2.3l-2,0.4l6.4,31.5l2-0.4l-5.5-26.9
	c2.3,0.6,5,0.9,7.8,0.9c2.8,0,5.4-0.3,7.8-0.9L57.8,80l2,0.4l6.4-31.5L64.2,48.5z"/>
<g>
	<path class="st0" d="M57.6,98.7h-4.2c-1.2,0-2.4-0.8-2.9-2l-1.4-3.1H62l-1.4,3.1C60,97.9,58.9,98.7,57.6,98.7z"/>
	<path class="st3" d="M61.9,94.6H49.2c-1.7,0-3.1-1.4-3.1-3.1V78.1h19v13.4C65.1,93.2,63.7,94.6,61.9,94.6z"/>
	<polygon class="st0" points="65.1,81.7 46,80.2 46,82.3 65.1,83.8 	"/>
	<polygon class="st0" points="65.1,86 46,84.5 46,86.6 65.1,88.1 	"/>
	<path class="st0" d="M46,90.9L65,92.4c0-0.2,0.1-0.4,0.1-0.6v-1.6l-19-1.5V90.9z"/>
</g>
</svg>