<?xml version="1.0" encoding="utf-8"?>
<svg version="1.1" id="Layer_3" xmlns="http://www.w3.org/2000/svg" xmlns:xlink="http://www.w3.org/1999/xlink" x="0px" y="0px"
	 viewBox="0 0 110 100" style="enable-background:new 0 0 110 100;" width="110" height="100" xml:space="preserve">
<style type="text/css">
	.st0{fill:#AAB7BD;}
	.st1{fill:#525F78;}
</style>
<g>
	<path class="st0" d="M55,92.4c-23.4,0-42.4-19-42.4-42.4S31.6,7.6,55,7.6c23.4,0,42.4,19,42.4,42.4S78.4,92.4,55,92.4z M55,9.6
		C32.7,9.6,14.6,27.7,14.6,50c0,22.3,18.1,40.4,40.4,40.4S95.4,72.3,95.4,50C95.4,27.7,77.3,9.6,55,9.6z"/>
	<g>
		<path class="st1" d="M24.7,49.4l20.4-9.9v3.9L28.9,51V51l16.2,7.6v3.8l-20.4-9.9V49.4z"/>
		<path class="st1" d="M48.1,64.2l10.5-31.3h3.7L51.8,64.2H48.1z"/>
		<path class="st1" d="M85.3,52.6l-20.4,9.8v-3.8L81.4,51V51l-16.5-7.6v-3.8l20.4,9.8V52.6z"/>
	</g>
</g>
</svg>
