<?xml version="1.0" encoding="utf-8"?>
<svg version="1.1" id="Layer_2" xmlns="http://www.w3.org/2000/svg" xmlns:xlink="http://www.w3.org/1999/xlink" x="0px" y="0px"
	 viewBox="0 0 110 100" style="enable-background:new 0 0 110 100;" width="110" height="100" xml:space="preserve">
<style type="text/css">
	.st0{fill:#AAB7BD;}
	.st1{fill:#525F78;}
	.st2{fill:#F26E09;}
	.st3{fill:#D62F27;}
</style>
<g>
	<path class="st0" d="M103,15.9v68.3H7V15.9H103 M105,13.9H5v72.3h100V13.9L105,13.9z"/>
	
		<rect x="49.7" y="-30.9" transform="matrix(3.129113e-010 1 -1 3.129113e-010 74.1439 -35.8561)" class="st1" width="10.6" height="100"/>
	<rect x="12" y="33.5" class="st1" width="12.4" height="2"/>
	<rect x="12" y="41.6" class="st1" width="14.4" height="2"/>
	<rect x="12" y="49.7" class="st1" width="9.6" height="2"/>
	<rect x="12" y="57.8" class="st1" width="10.9" height="2"/>
	<rect x="12" y="65.9" class="st1" width="14.4" height="2"/>
	<rect x="12" y="74" class="st1" width="8.7" height="2"/>
	<rect x="32.4" y="32.5" class="st2" width="17.1" height="4"/>
	<rect x="49.4" y="40.6" class="st2" width="9.5" height="4"/>
	<rect x="49.4" y="48.7" class="st1" width="27.9" height="4"/>
	<rect x="59" y="56.8" class="st1" width="22.2" height="4"/>
	<rect x="59" y="64.9" class="st3" width="38.9" height="4"/>
	<rect x="81.2" y="73" class="st3" width="16.7" height="4"/>
</g>
</svg>