<?xml version="1.0" encoding="utf-8"?>
<svg version="1.1" id="Layer_2" xmlns="http://www.w3.org/2000/svg" xmlns:xlink="http://www.w3.org/1999/xlink" x="0px" y="0px"
	 viewBox="0 0 110 100" style="enable-background:new 0 0 110 100;" width="110" height="100" xml:space="preserve">
<style type="text/css">
	.st0{fill:#AAB7BD;}
	.st1{fill:#D2D7D9;}
	.st2{fill:#D62F27;}
</style>
<g>
	<g>
		<g>
			<path class="st0" d="M46.1,41.2c-0.1-0.2-0.2-0.4-0.1-0.6l3.7-7.9c0.1-0.2,0-0.4-0.2-0.5l-7-4.2c-0.2-0.1-0.4-0.1-0.5,0.1l-5.3,7
				c-0.1,0.2-0.4,0.3-0.6,0.2l-4.2-0.6c-0.2,0-0.4-0.2-0.5-0.4l-3-8.2c-0.1-0.2-0.3-0.3-0.5-0.3l-8,2c-0.2,0-0.3,0.3-0.3,0.5
				l1.2,8.7c0,0.2-0.1,0.5-0.3,0.6L17.1,40c-0.2,0.1-0.4,0.2-0.6,0.1l-7.9-3.7c-0.2-0.1-0.4,0-0.5,0.2l-4.2,7
				c-0.1,0.2-0.1,0.4,0.1,0.5l7,5.3c0.2,0.1,0.3,0.4,0.2,0.6l-0.6,4.2c0,0.2-0.2,0.4-0.4,0.5l-8.2,3c-0.2,0.1-0.3,0.3-0.3,0.5l2,8
				c0,0.2,0.3,0.3,0.5,0.3l8.7-1.2c0.2,0,0.5,0.1,0.6,0.3l2.5,3.4c0.1,0.2,0.2,0.4,0.1,0.6l-3.7,7.9c-0.1,0.2,0,0.4,0.2,0.5l7,4.2
				c0.2,0.1,0.4,0.1,0.5-0.1l5.3-7c0.1-0.2,0.4-0.3,0.6-0.2l4.2,0.6c0.2,0,0.4,0.2,0.5,0.4l3,8.2c0.1,0.2,0.3,0.3,0.5,0.3l8-2
				c0.2,0,0.3-0.3,0.3-0.5l-1.2-8.7c0-0.2,0.1-0.5,0.3-0.6l3.4-2.5c0.2-0.1,0.4-0.2,0.6-0.1l7.9,3.7c0.2,0.1,0.4,0,0.5-0.2l4.2-7
				c0.1-0.2,0.1-0.4-0.1-0.5l-7-5.3c-0.2-0.1-0.3-0.4-0.2-0.6l0.6-4.2c0-0.2,0.2-0.4,0.4-0.5l8.2-3c0.2-0.1,0.3-0.3,0.3-0.5l-2-8
				c0-0.2-0.3-0.3-0.5-0.3L49.2,45c-0.2,0-0.5-0.1-0.6-0.3L46.1,41.2z M40,52.8c1.2,5-1.8,10-6.8,11.3c-5,1.2-10-1.8-11.3-6.8
				c-1.2-5,1.8-10,6.8-11.3C33.7,44.8,38.8,47.8,40,52.8z"/>
		</g>
	</g>
	<path class="st1" d="M79.9,26.2l4.9-3.5l-3.4-5.9L76,19.3c-0.9-0.8-2-1.6-3.1-2l-0.5-6.2h-6.7l-0.5,6.1c-1.3,0.5-2.4,1.5-3.4,2.3
		l-5-2.3L53.3,23l4.5,3.1c-0.2,1.4-0.2,2.8,0.1,4.2l-4.4,3.1l3.4,5.8l5-2.4c1.1,0.9,2.3,1.4,3.6,1.8L66,44h6.7l0.5-5.7
		c1.2-0.5,2.2-1,3.1-1.8l5.3,2.5l3.4-5.8l-5-3.5C80.1,28.5,80.1,27.3,79.9,26.2z M70.1,33.1c-2.7,0.7-5.5-1-6.2-3.7
		c-0.7-2.7,1-5.5,3.7-6.2c2.7-0.7,5.5,1,6.2,3.7C74.5,29.6,72.8,32.4,70.1,33.1z"/>
	<path class="st0" d="M83,88.3c-11.5,0-20.8-9.4-20.8-20.8S71.5,46.7,83,46.7c11.5,0,20.8,9.4,20.8,20.8S94.5,88.3,83,88.3z
		 M83,48.7c-10.4,0-18.8,8.5-18.8,18.8c0,10.4,8.5,18.8,18.8,18.8c10.4,0,18.8-8.5,18.8-18.8C101.8,57.1,93.4,48.7,83,48.7z"/>
	<polygon class="st2" points="82.8,77.6 69.9,64.7 72.8,61.8 82.8,71.9 107.1,47.7 109.9,50.5 	"/>
</g>
</svg>