<?xml version="1.0" encoding="utf-8"?>
<svg version="1.1" id="Layer_2" xmlns="http://www.w3.org/2000/svg" xmlns:xlink="http://www.w3.org/1999/xlink" x="0px" y="0px"
	 viewBox="0 0 110 100" style="enable-background:new 0 0 110 100;" width="110" height="100" xml:space="preserve">
<style type="text/css">
	.st0{fill:#FFFFFF;}
	.st1{fill:#AAB7BD;}
	.st2{fill:#525F78;}
	.st3{fill:#D62F27;}
</style>
<g>
	<g>
		<rect x="23.9" y="13.6" class="st0" width="62.1" height="84.1"/>
		<path class="st1" d="M87.1,98.6H22.9V12.6h64.1V98.6z M24.9,96.6h60.1V14.6H24.9V96.6z"/>
	</g>
	<path class="st2" d="M67.2,11.1c-1,0-2-0.7-2.2-1.7c-1-4.6-5.1-8-10-8s-9,3.4-10,8c-0.2,1-1.2,1.7-2.2,1.7h-8.7v6.1h41.8v-6.1H67.2
		z M55,4.2c1.9,0,3.4,1.5,3.4,3.4S56.9,11,55,11c-1.9,0-3.4-1.5-3.4-3.4S53.1,4.2,55,4.2z"/>
	<polygon class="st3" points="35.3,36.9 31,32.6 32.8,30.8 35.3,33.4 42.5,26.2 44.2,28 	"/>
	<rect x="46.3" y="31.4" class="st2" width="32.5" height="2"/>
	<rect x="46.3" y="36.6" class="st2" width="27" height="2"/>
	<polygon class="st3" points="35.3,52 31,47.7 32.8,45.9 35.3,48.4 42.5,41.3 44.2,43.1 	"/>
	<rect x="46.3" y="46.4" class="st2" width="32.5" height="2"/>
	<rect x="46.3" y="51.6" class="st2" width="13.5" height="2"/>
	<polygon class="st3" points="35.3,67 31,62.7 32.8,60.9 35.3,63.5 42.5,56.4 44.2,58.1 	"/>
	<rect x="46.3" y="61.5" class="st2" width="32.5" height="2"/>
	<rect x="46.3" y="66.7" class="st2" width="21.6" height="2"/>
	<polygon class="st3" points="35.3,82.1 31,77.8 32.8,76 35.3,78.6 42.5,71.4 44.2,73.2 	"/>
	<rect x="46.3" y="76.6" class="st2" width="32.5" height="2"/>
	<rect x="46.3" y="81.8" class="st2" width="13.5" height="2"/>
</g>
</svg>