<?xml version="1.0" encoding="utf-8"?>
<svg version="1.1" id="Layer_3" xmlns="http://www.w3.org/2000/svg" xmlns:xlink="http://www.w3.org/1999/xlink" x="0px" y="0px"
	 viewBox="0 0 110 100" style="enable-background:new 0 0 110 100;" width="110" height="100" xml:space="preserve">
<style type="text/css">
	.st0{fill:#AAB7BD;}
	.st1{fill:#D2D7D9;}
	.st2{fill:#D62F27;}
	.st3{fill:#F26E09;}
</style>
<g>
	<path class="st0" d="M80.5,59.8l-1-0.1c-1.8,0-3.5,0.4-5.1,1L44.3,30.6c0.6-1.6,1-3.3,1-5.1l-0.1-1c-0.5-7.6-6.8-13.7-14.6-13.7
		c-2.3,0-4.4,0.6-6.3,1.5l10.8,10.8L34,29l-5.9,1L17.4,19.2c-0.9,1.9-1.5,4-1.5,6.3c0,7.8,6.1,14.1,13.7,14.6l1,0.1
		c1.8,0,3.5-0.4,5.1-1l30.1,30.1c-0.6,1.6-1,3.3-1,5.1l0.1,1c0.5,7.6,6.8,13.7,14.6,13.7c2.2,0,4.4-0.6,6.3-1.5L75,76.8l1-5.9l5.9-1
		l10.8,10.8c0.9-1.9,1.5-4,1.5-6.3C94.2,66.6,88.1,60.4,80.5,59.8L80.5,59.8z"/>
	<path class="st1" d="M52.4,58l25.8-26l10.5-5.4l5.5-10.6l-5.1-5.1l-10.6,5.5L73,26.8l-25.8,26L52.4,58z"/>
	<g>
		<path class="st2" d="M47.1,49.9c-1.2,0-2.3,0.3-3.1,1.2L18,76.7c-2.9,2.9-2.9,7.5,0,10.3c1.4,1.4,3.3,2.1,5.2,2.1
			c1.9,0,3.8-0.7,5.2-2.2L54,61.5c1-1,1.4-2.3,1.3-3.7L48,50.5L47.1,49.9z"/>
	</g>
	<path class="st2" d="M47.4,68.1L37.1,57.8l7.6-7.6c0.9-0.9,2.2-0.9,3.1,0l7.2,7.2c0.9,0.9,0.9,2.2,0,3.1L47.4,68.1z"/>
	<g>
		<path class="st3" d="M20.7,81.7c-0.3,0-0.5-0.1-0.7-0.3c-0.4-0.4-0.4-1,0-1.4l26.8-26.8c0.4-0.4,1-0.4,1.4,0s0.4,1,0,1.4
			L21.4,81.4C21.2,81.6,21,81.7,20.7,81.7z"/>
		<path class="st3" d="M24.4,85.5c-0.3,0-0.5-0.1-0.7-0.3c-0.4-0.4-0.4-1,0-1.4L50.5,57c0.4-0.4,1-0.4,1.4,0s0.4,1,0,1.4L25.1,85.2
			C24.9,85.4,24.7,85.5,24.4,85.5z"/>
	</g>
</g>
</svg>
